<?xml version="1.0" encoding="UTF-8" standalone="no"?>
<!-- Created with Inkscape (http://www.inkscape.org/) -->

<svg
   xmlns:dc="http://purl.org/dc/elements/1.1/"
   xmlns:cc="http://creativecommons.org/ns#"
   xmlns:rdf="http://www.w3.org/1999/02/22-rdf-syntax-ns#"
   xmlns:svg="http://www.w3.org/2000/svg"
   xmlns="http://www.w3.org/2000/svg"
   xmlns:xlink="http://www.w3.org/1999/xlink"
   xmlns:sodipodi="http://sodipodi.sourceforge.net/DTD/sodipodi-0.dtd"
   xmlns:inkscape="http://www.inkscape.org/namespaces/inkscape"
   version="1.1"
   width="300"
   height="300"
   viewBox="0 0 300 299.99999"
   id="Layer_1"
   xml:space="preserve"
   inkscape:version="0.48.4 r9939"
   sodipodi:docname="logo_.svg"><sodipodi:namedview
     pagecolor="#ffffff"
     bordercolor="#666666"
     borderopacity="1"
     objecttolerance="10"
     gridtolerance="10"
     guidetolerance="10"
     inkscape:pageopacity="0"
     inkscape:pageshadow="2"
     inkscape:window-width="1920"
     inkscape:window-height="1025"
     id="namedview20"
     showgrid="false"
     inkscape:zoom="1.4000714"
     inkscape:cx="149.85207"
     inkscape:cy="150.44378"
     inkscape:window-x="-2"
     inkscape:window-y="-3"
     inkscape:window-maximized="1"
     inkscape:current-layer="Layer_1" /><metadata
     id="metadata83"><rdf:RDF><cc:Work
         rdf:about=""><dc:format>image/svg+xml</dc:format><dc:type
           rdf:resource="http://purl.org/dc/dcmitype/StillImage" /><dc:title /></cc:Work></rdf:RDF></metadata><defs
     id="defs81"><linearGradient
       x1="301.62259"
       y1="69.4907"
       x2="270.12549"
       y2="69.4907"
       id="linearGradient3084"
       xlink:href="#SVGID_13_"
       gradientUnits="userSpaceOnUse"
       gradientTransform="matrix(-1,0,0,-1,425.499,136.4824)" /><linearGradient
       x1="139.6255"
       y1="66.9907"
       x2="108.1284"
       y2="66.9907"
       id="linearGradient3062"
       xlink:href="#SVGID_4_"
       gradientUnits="userSpaceOnUse" /><linearGradient
       x1="301.62259"
       y1="69.4907"
       x2="270.12549"
       y2="69.4907"
       id="linearGradient3066"
       xlink:href="#SVGID_9_"
       gradientUnits="userSpaceOnUse"
       gradientTransform="matrix(-1,0,0,-1,425.499,136.4824)" /></defs><g
     id="g2994"
     transform="matrix(0.84609816,0,0,0.84609816,23.085279,52.322228)"><polygon
       points="108.128,27.621 108.128,106.361 60.884,100.806 60.884,33.177 "
       transform="matrix(1.8887947,0,0,1.8887947,-104.51698,-11.087287)"
       id="polygon3"
       style="fill:#ffffff" /><polygon
       points="202.618,100.806 155.374,106.361 155.374,27.621 202.618,33.177 "
       transform="matrix(1.8887947,0,0,1.8887947,-93.184207,-11.087287)"
       id="polygon5"
       style="fill:#ffffff" /><polygon
       points="139.625,80.114 108.128,27.621 108.128,106.361 "
       transform="matrix(1.8887947,0,0,1.8887947,-100.73939,-11.087287)"
       id="polygon7"
       style="fill:#ffffff" /><polygon
       points="155.374,106.361 155.374,27.621 123.877,53.868 "
       transform="matrix(1.8887947,0,0,1.8887947,-96.961797,-11.087287)"
       id="polygon9"
       style="fill:#ffffff" /></g><path
     sodipodi:type="arc"
     style="fill:none;stroke:#ffffff;stroke-width:6.38830853;stroke-miterlimit:4;stroke-dasharray:none"
     id="path2993"
     sodipodi:cx="168.91995"
     sodipodi:cy="199.64798"
     sodipodi:rx="179.6337"
     sodipodi:ry="179.6337"
     d="m 348.55365,199.64798 a 179.6337,179.6337 0 1 1 -359.267395,0 179.6337,179.6337 0 1 1 359.267395,0 z"
     transform="matrix(0.7946687,0,0,0.7946687,15.764601,-8.6540055)" /></svg>
